<?xml version="1.0" encoding="utf-8"?>
<svg width="3137.001" height="663.147" viewBox="0 0 3137.001 663.147" fill="none" xmlns="http://www.w3.org/2000/svg">
  <g>
    <rect width="3137.001" height="663.147" fill="#FFFFFF" fill-rule="evenodd" />
    <g transform="translate(150 68)">
      <g transform="translate(2110.352 143.826)">
        <path d="M373.152 147.147C363.888 106.283 341.302 69.6587 308.946 43.0356C276.591 16.4125 236.303 1.30163 194.42 0.0803119C152.537 -1.141 111.436 11.5965 77.5847 36.289C43.7329 60.9814 19.0509 96.2278 7.42175 136.482C-4.20741 176.737 -2.12371 219.715 13.345 258.655C28.8138 297.596 56.7897 330.29 92.8718 351.591C128.953 372.893 171.093 381.595 212.661 376.328C254.229 371.06 292.867 352.123 322.495 322.495C322.495 322.495 259.103 259.103 259.103 259.103C243.535 274.672 223.233 284.622 201.392 287.39C179.55 290.157 157.407 285.584 138.448 274.392C119.49 263.199 104.789 246.02 96.6619 225.559C88.5339 205.098 87.439 182.515 93.5493 161.364C99.6597 140.212 112.629 121.692 130.416 108.717C148.203 95.7429 169.8 89.0501 191.807 89.6918C213.814 90.3336 234.983 98.2739 251.984 112.262C268.985 126.251 280.853 145.496 285.721 166.968C285.721 166.968 373.152 147.147 373.152 147.147Z" fill="#4F679E" fill-rule="evenodd" />
        <path d="M0 49.0552C0 21.9627 21.963 0 49.0557 0C76.1484 0 98.1111 21.9627 98.1111 49.0552C98.1111 76.1476 76.1484 98.1102 49.0557 98.1102C21.963 98.1102 0 76.1476 0 49.0552Z" fill="#4F679E" fill-rule="evenodd" transform="matrix(1 0 0 1 279.999 279.999)" />
        <path d="M0 44.776C0 20.0469 20.0471 0 44.7765 0C69.5058 0 89.5529 20.0469 89.5529 44.776C89.5529 69.5051 69.5058 89.552 44.7765 89.552C20.0471 89.552 0 69.5051 0 44.776Z" fill="#4F679E" fill-rule="evenodd" transform="matrix(1 0 0 1 284.938 113.975)" />
        <path d="M0 44.776C0 20.0469 20.0471 0 44.7764 0C69.5058 0 89.5529 20.0469 89.5529 44.776C89.5529 69.5051 69.5058 89.552 44.7764 89.552C20.0471 89.552 0 69.5051 0 44.776Z" fill="#4F679E" fill-rule="evenodd" transform="translate(247.851 244.233)" />
        <path d="M0 44.776C0 20.0469 20.0471 0 44.7765 0C69.5059 0 89.5529 20.0469 89.5529 44.776C89.5529 69.5051 69.5059 89.552 44.7765 89.552C20.0471 89.552 0 69.5051 0 44.776Z" fill="#4F679E" fill-rule="evenodd" transform="translate(147.681 144.243)" />
        <path d="M73.7898 11.7932C73.7898 11.7932 115.275 50.4972 115.275 50.4972C132.991 67.0256 133.953 94.7779 117.425 112.494C117.425 112.494 117.425 112.494 117.425 112.494C100.896 130.21 73.1438 131.172 55.4279 114.644C55.4279 114.644 13.9431 75.9398 13.9431 75.9398C-3.77286 59.4114 -4.73524 31.6591 11.7932 13.9431C11.7932 13.9431 11.7932 13.9431 11.7932 13.9431C28.3217 -3.77287 56.0739 -4.73523 73.7898 11.7932C73.7898 11.7932 73.7898 11.7932 73.7898 11.7932Z" fill="#4F679E" transform="matrix(1 0 0 1 249.034 244.66)" />
      </g>
      <g transform="matrix(1 0 0 1 2529.166 20.318)">
        <path d="M277.567 97.4779C269.368 72.6576 254.444 50.5768 234.442 33.6725C214.44 16.7684 190.139 5.6981 164.22 1.68365C138.303 -2.3308 111.775 0.866636 87.5651 10.9231C63.3557 20.9796 42.4061 37.5039 27.0287 58.6724C11.6514 79.841 2.44411 104.83 0.423195 130.883C-1.59772 156.935 3.64631 183.036 15.5765 206.307C27.5066 229.578 45.659 249.112 68.0301 262.755C90.4012 276.397 116.121 283.617 142.351 283.617C142.351 283.617 142.351 194.507 142.351 194.507C132.603 194.507 123.045 191.824 114.732 186.754C106.419 181.685 99.6723 174.425 95.2391 165.777C90.8058 157.13 88.8566 147.43 89.6077 137.748C90.3587 128.067 93.78 118.78 99.495 110.913C105.209 103.046 112.995 96.9062 121.992 93.1686C130.988 89.4316 140.846 88.2434 150.478 89.7352C160.11 91.2274 169.14 95.3413 176.574 101.623C184.007 107.905 189.553 116.11 192.6 125.334C192.6 125.334 277.567 97.4779 277.567 97.4779Z" fill="#4F679E" fill-rule="evenodd" transform="translate(0 0)" />
        <path d="M0 216.91C11.2824 242.274 29.2014 264.122 51.8665 280.15C74.5317 296.178 101.102 305.792 128.777 307.977C156.45 310.162 184.201 304.838 209.1 292.565C234 280.293 255.126 261.527 270.249 238.248C285.372 214.969 293.932 188.04 295.026 160.303C296.119 132.564 289.705 105.045 276.462 80.6481C263.218 56.2513 243.635 35.8811 219.778 21.6868C195.922 7.4924 168.676 0 140.916 0C140.916 0 140.916 89.2173 140.916 89.2173C152.617 89.2173 164.103 92.3752 174.159 98.3589C184.215 104.342 192.469 112.929 198.052 123.213C203.634 133.496 206.338 145.096 205.876 156.788C205.416 168.481 201.808 179.832 195.433 189.644C189.059 199.457 180.153 207.367 169.658 212.54C159.162 217.713 147.464 219.958 135.799 219.037C124.134 218.115 112.934 214.063 103.38 207.307C93.8261 200.55 86.273 191.341 81.5168 180.65C81.5168 180.65 0 216.91 0 216.91Z" fill="#4F679E" fill-rule="evenodd" transform="translate(13.313 194.482)" />
        <path d="M0 44.776C0 20.0469 20.0471 0 44.7765 0C69.5058 0 89.5529 20.0469 89.5529 44.776C89.5529 69.5051 69.5058 89.552 44.7765 89.552C20.0471 89.552 0 69.5051 0 44.776Z" fill="#4F679E" fill-rule="evenodd" transform="translate(9.046 348.258)" />
        <path d="M0 44.776C0 20.0469 20.0471 0 44.7765 0C69.5058 0 89.5529 20.0469 89.5529 44.776C89.5529 69.5051 69.5058 89.552 44.7765 89.552C20.0471 89.552 0 69.5051 0 44.776Z" fill="#4F679E" fill-rule="evenodd" transform="translate(190.863 68.747)" />
        <path d="M36.1826 0C36.1826 0 50.6557 0 50.6557 0C70.6415 0 86.8383 16.1968 86.8383 36.1826C86.8383 36.1826 86.8383 53.3694 86.8383 53.3694C86.8383 73.3552 70.6415 89.552 50.6557 89.552C50.6557 89.552 36.1826 89.552 36.1826 89.552C16.1968 89.552 0 73.3552 0 53.3694C0 53.3694 0 36.1826 0 36.1826C0 16.1968 16.1968 0 36.1826 0C36.1826 0 36.1826 0 36.1826 0Z" fill="#4F679E" transform="translate(104.025 194.065)" />
      </g>
      <g transform="translate(1566.708 142.922)">
        <path d="M290.989 145.494C290.989 126.387 287.226 107.468 279.914 89.8152C272.602 72.1636 261.885 56.1247 248.375 42.6141C234.864 29.1035 218.825 18.3862 201.173 11.0746C183.521 3.76297 164.601 0 145.495 0C126.388 0 107.469 3.76297 89.8162 11.0746C72.1645 18.3862 56.1247 29.1035 42.615 42.6141C29.1044 56.1247 18.3871 72.1636 11.0755 89.8152C3.76388 107.468 0 126.387 0 145.494C0 145.494 97.7954 145.494 97.7954 145.494C97.7954 139.23 99.0292 133.027 101.426 127.24C103.823 121.453 107.337 116.195 111.766 111.765C116.196 107.337 121.454 103.822 127.241 101.425C133.028 99.0282 139.231 97.7944 145.495 97.7944C151.758 97.7944 157.961 99.0282 163.748 101.425C169.536 103.822 174.794 107.337 179.223 111.765C183.652 116.195 187.166 121.453 189.563 127.24C191.96 133.027 193.194 139.23 193.194 145.494C193.194 145.494 290.989 145.494 290.989 145.494Z" fill="#4F679E" fill-rule="evenodd" transform="translate(0.281 0.282)" />
        <path d="M290.989 145.494C290.989 126.387 287.226 107.468 279.914 89.8152C272.602 72.1636 261.885 56.1247 248.375 42.6141C234.864 29.1035 218.825 18.3862 201.173 11.0746C183.521 3.76297 164.601 0 145.495 0C126.388 0 107.469 3.76297 89.8161 11.0746C72.1644 18.3862 56.1247 29.1035 42.615 42.6141C29.1044 56.1247 18.3871 72.1636 11.0755 89.8152C3.76389 107.468 0 126.387 0 145.494C0 145.494 97.7953 145.494 97.7953 145.494C97.7953 139.23 99.0292 133.027 101.426 127.24C103.823 121.453 107.337 116.195 111.766 111.765C116.196 107.337 121.454 103.822 127.241 101.425C133.028 99.0282 139.231 97.7944 145.495 97.7944C151.758 97.7944 157.961 99.0282 163.748 101.425C169.536 103.822 174.794 107.337 179.223 111.765C183.652 116.195 187.166 121.453 189.563 127.24C191.96 133.027 193.194 139.23 193.194 145.494C193.194 145.494 290.989 145.494 290.989 145.494Z" fill="#4F679E" fill-rule="evenodd" transform="translate(193.859 0.282)" />
        <path d="M1.38026e-05 329.262C1.38026e-05 329.262 0 48.8465 0 48.8465C0 21.8661 21.8657 0 48.8466 0C48.8466 0 48.8466 0 48.8466 0C75.8275 0 97.6931 21.8661 97.6931 48.8465C97.6931 48.8465 97.6931 329.262 97.6931 329.262C97.6931 356.243 75.8275 378.108 48.8466 378.108C48.8466 378.108 48.8466 378.108 48.8466 378.108C21.8657 378.108 1.38026e-05 356.243 1.38026e-05 329.262C1.38026e-05 329.262 1.38026e-05 329.262 1.38026e-05 329.262Z" fill="#4F679E" />
        <path d="M1.52588e-05 231.569C1.52588e-05 231.569 0 48.8466 0 48.8466C0 21.8661 21.8657 0 48.8466 0C48.8466 0 48.8466 0 48.8466 0C75.8275 0 97.6931 21.8661 97.6931 48.8466C97.6931 48.8466 97.6931 231.569 97.6931 231.569C97.6931 258.55 75.8275 280.415 48.8466 280.415C48.8466 280.415 48.8466 280.415 48.8466 280.415C21.8657 280.415 1.52588e-05 258.55 1.52588e-05 231.569C1.52588e-05 231.569 1.52588e-05 231.569 1.52588e-05 231.569Z" fill="#4F679E" transform="translate(193.577 97.693)" />
        <path d="M0 231.569C0 231.569 0 48.8466 0 48.8466C0 21.8661 21.8657 0 48.8465 0C48.8465 0 48.8465 0 48.8465 0C75.8275 0 97.6931 21.8661 97.6931 48.8466C97.6931 48.8466 97.6931 231.569 97.6931 231.569C97.6931 258.55 75.8275 280.415 48.8466 280.415C48.8466 280.415 48.8466 280.415 48.8466 280.415C21.8657 280.415 0 258.55 0 231.569C0 231.569 0 231.569 0 231.569Z" fill="#4F679E" transform="translate(387.154 97.693)" />
      </g>
      <g transform="translate(1021.255 149.254)">
        <path d="M290.989 145.494C290.989 126.387 287.226 107.468 279.914 89.8152C272.602 72.1636 261.885 56.1247 248.374 42.6141C234.864 29.1035 218.825 18.3862 201.173 11.0746C183.521 3.76297 164.601 0 145.495 0C126.388 0 107.469 3.76297 89.8161 11.0746C72.1644 18.3862 56.1247 29.1035 42.615 42.6141C29.1044 56.1247 18.3871 72.1636 11.0755 89.8152C3.76388 107.468 0 126.387 0 145.494C0 145.494 97.7953 145.494 97.7953 145.494C97.7953 139.23 99.0291 133.027 101.426 127.24C103.823 121.453 107.337 116.195 111.766 111.765C116.196 107.337 121.454 103.822 127.241 101.425C133.028 99.0282 139.231 97.7944 145.495 97.7944C151.758 97.7944 157.961 99.0282 163.748 101.425C169.536 103.822 174.794 107.337 179.223 111.765C183.652 116.195 187.165 121.453 189.563 127.24C191.96 133.027 193.194 139.23 193.194 145.494C193.194 145.494 290.989 145.494 290.989 145.494Z" fill="#4F679E" fill-rule="evenodd" transform="translate(0.281 0.282)" />
        <path d="M290.989 145.494C290.989 126.387 287.225 107.468 279.914 89.8152C272.602 72.1636 261.885 56.1247 248.374 42.6141C234.864 29.1035 218.825 18.3862 201.173 11.0746C183.521 3.76297 164.601 0 145.495 0C126.388 0 107.469 3.76297 89.8161 11.0746C72.1644 18.3862 56.1247 29.1035 42.615 42.6141C29.1044 56.1247 18.3871 72.1636 11.0755 89.8152C3.76389 107.468 0 126.387 0 145.494C0 145.494 97.7953 145.494 97.7953 145.494C97.7953 139.23 99.0291 133.027 101.426 127.24C103.823 121.453 107.337 116.195 111.766 111.765C116.196 107.337 121.454 103.822 127.241 101.425C133.028 99.0282 139.231 97.7944 145.495 97.7944C151.758 97.7944 157.961 99.0282 163.748 101.425C169.535 103.822 174.794 107.337 179.222 111.765C183.652 116.195 187.165 121.453 189.563 127.24C191.96 133.027 193.193 139.23 193.193 145.494C193.193 145.494 290.989 145.494 290.989 145.494Z" fill="#4F679E" fill-rule="evenodd" transform="translate(193.858 0.282)" />
        <path d="M1.38026e-05 329.262C1.38026e-05 329.262 0 48.8465 0 48.8465C0 21.8661 21.8657 0 48.8466 0C48.8466 0 48.8466 0 48.8466 0C75.8275 0 97.6931 21.8661 97.6931 48.8465C97.6931 48.8465 97.6931 329.262 97.6931 329.262C97.6931 356.243 75.8275 378.108 48.8466 378.108C48.8466 378.108 48.8466 378.108 48.8466 378.108C21.8657 378.108 1.38026e-05 356.243 1.38026e-05 329.262C1.38026e-05 329.262 1.38026e-05 329.262 1.38026e-05 329.262Z" fill="#4F679E" />
        <path d="M1.52588e-05 231.569C1.52588e-05 231.569 0 48.8466 0 48.8466C0 21.8661 21.8657 0 48.8466 0C48.8466 0 48.8466 0 48.8466 0C75.8275 0 97.6931 21.8661 97.6931 48.8466C97.6931 48.8466 97.6931 231.569 97.6931 231.569C97.6931 258.55 75.8275 280.415 48.8466 280.415C48.8466 280.415 48.8466 280.415 48.8466 280.415C21.8657 280.415 1.52588e-05 258.55 1.52588e-05 231.569C1.52588e-05 231.569 1.52588e-05 231.569 1.52588e-05 231.569Z" fill="#4F679E" transform="translate(193.577 97.693)" />
        <path d="M0 231.569C0 231.569 0 48.8466 0 48.8466C0 21.8661 21.8657 0 48.8466 0C48.8466 0 48.8466 0 48.8466 0C75.8275 0 97.6931 21.8661 97.6931 48.8466C97.6931 48.8466 97.6931 231.569 97.6931 231.569C97.6931 258.55 75.8275 280.415 48.8466 280.415C48.8466 280.415 48.8466 280.415 48.8466 280.415C21.8657 280.415 0 258.55 0 231.569C0 231.569 0 231.569 0 231.569Z" fill="#4F679E" transform="translate(387.154 97.693)" />
      </g>
      <g transform="translate(583.313 143.826)">
        <path d="M372.411 144.015C362.595 103.896 339.902 68.0998 307.805 42.1057C275.708 16.1115 235.977 1.35258 194.694 0.0885435C153.411 -1.17557 112.851 11.1247 79.2236 35.1062C45.5965 59.0877 20.7554 93.4289 8.50323 132.872C-3.74891 172.316 -2.7366 214.687 11.3843 253.501C25.5065 292.314 51.9584 325.43 86.6922 347.779C121.426 370.127 162.527 380.478 203.702 377.243C244.878 374.01 283.86 357.371 314.679 329.874C314.679 329.874 254.995 262.98 254.995 262.98C238.802 277.428 218.319 286.17 196.683 287.869C175.048 289.569 153.451 284.131 135.201 272.387C116.95 260.645 103.051 243.244 95.6311 222.85C88.211 202.455 87.6789 180.191 94.1171 159.465C100.555 138.741 113.608 120.696 131.277 108.096C148.945 95.4943 170.258 89.0317 191.949 89.6953C213.642 90.3596 234.519 98.1149 251.383 111.773C268.249 125.431 280.173 144.241 285.331 165.321C285.331 165.321 372.411 144.015 372.411 144.015Z" fill="#4F679E" fill-rule="evenodd" />
        <path d="M35.5217 25.5574C35.5217 25.5574 162.727 0.815926 162.727 0.815926C186.526 -3.81299 209.564 11.7227 214.193 35.5217C214.193 35.5217 214.193 35.5217 214.193 35.5217C218.822 59.3208 203.286 82.3592 179.487 86.9882C179.487 86.9882 52.2823 111.73 52.2823 111.73C28.4833 116.359 5.44484 100.823 0.815933 77.0238C0.815933 77.0238 0.815933 77.0238 0.815933 77.0238C-3.81302 53.2248 11.7227 30.1863 35.5217 25.5574C35.5217 25.5574 35.5217 25.5574 35.5217 25.5574Z" fill="#4F679E" transform="translate(158.874 115.154)" />
        <path d="M0 44.776C0 20.0469 20.0471 0 44.7765 0C69.5059 0 89.553 20.0469 89.553 44.776C89.553 69.5051 69.5059 89.552 44.7765 89.552C20.0471 89.552 0 69.5051 0 44.776Z" fill="#4F679E" fill-rule="evenodd" transform="matrix(1 0 0 1 285.071 113.976)" />
        <path d="M0 44.776C0 20.0469 20.0471 0 44.7765 0C69.5059 0 89.553 20.0469 89.553 44.776C89.553 69.5051 69.5059 89.552 44.7765 89.552C20.0471 89.552 0 69.5051 0 44.776Z" fill="#4F679E" fill-rule="evenodd" transform="translate(239.842 251.47)" />
      </g>
      <g>
        <path d="M54.274 0C54.274 0 228.594 0 228.594 0C258.572 0 282.868 24.2952 282.868 54.274C282.868 54.274 282.868 54.5223 282.868 54.5223C282.868 84.5009 258.572 108.796 228.594 108.796C228.594 108.796 54.274 108.796 54.274 108.796C24.2952 108.796 0 84.5009 0 54.5223C0 54.5223 0 54.274 0 54.274C0 24.2952 24.2952 0 54.274 0C54.274 0 54.274 0 54.274 0Z" fill="#4CAF50" transform="translate(239.328 217.592)" />
        <path d="M448.238 79.0086C406.579 36.1993 351.501 8.96793 292.192 1.85712C232.882 -5.25368 172.929 8.18594 122.331 39.9341C71.7323 71.6824 33.5497 119.819 14.1516 176.316C-5.2466 232.812 -4.68722 294.251 15.7365 350.385C36.16 406.519 75.2129 453.952 126.381 484.775C177.548 515.596 237.737 527.942 296.907 519.752C356.077 511.562 410.649 483.333 451.522 439.772C492.395 396.211 517.096 339.954 521.506 280.382C521.506 280.382 412.675 272.327 412.675 272.327C410.108 307.001 395.73 339.746 371.94 365.101C348.15 390.456 316.385 406.888 281.945 411.654C247.505 416.421 212.472 409.235 182.69 391.295C152.907 373.356 130.176 345.746 118.288 313.073C106.4 280.4 106.075 244.639 117.366 211.755C128.656 178.87 150.881 150.852 180.332 132.373C209.782 113.893 244.68 106.071 279.201 110.209C313.722 114.348 345.78 130.198 370.029 155.116C370.029 155.116 448.238 79.0086 448.238 79.0086Z" fill="#4F679E" fill-rule="evenodd" />
        <path d="M0 54.8771C0 24.5693 24.569 0 54.8765 0C85.1839 0 109.753 24.5693 109.753 54.8771C109.753 85.1848 85.1839 109.754 54.8765 109.754C24.569 109.754 0 85.1848 0 54.8771Z" fill="#FFC107" fill-rule="evenodd" transform="translate(412.482 217.592)" />
        <path d="M0 54.7257C0 24.5015 24.5018 0 54.7262 0C84.9507 0 109.452 24.5015 109.452 54.7257C109.452 84.9498 84.9507 109.452 54.7262 109.452C24.5018 109.452 0 84.9498 0 54.7257Z" fill="#FFC107" fill-rule="evenodd" transform="translate(355.494 63.32)" />
      </g>
    </g>
  </g>
</svg>